<?xml version="1.0" encoding="UTF-8"?>
<!DOCTYPE svg PUBLIC "-//W3C//DTD SVG 1.1//EN" "http://www.w3.org/Graphics/SVG/1.1/DTD/svg11.dtd">
<svg xmlns="http://www.w3.org/2000/svg" version="1.1" width="241px" height="102px" style="shape-rendering:geometricPrecision; text-rendering:geometricPrecision; image-rendering:optimizeQuality; fill-rule:evenodd; clip-rule:evenodd" xmlns:xlink="http://www.w3.org/1999/xlink">
<g><path style="opacity:1" fill="#38332f" d="M 96.5,-0.5 C 97.1667,-0.5 97.8333,-0.5 98.5,-0.5C 98.8333,0.166667 99.1667,0.833333 99.5,1.5C 97.8212,1.71481 96.8212,1.04814 96.5,-0.5 Z"/></g>
<g><path style="opacity:1" fill="#83746c" d="M 85.5,-0.5 C 85.8333,-0.5 86.1667,-0.5 86.5,-0.5C 86.5,0.5 86.5,1.5 86.5,2.5C 85.0413,2.43255 83.7079,2.76589 82.5,3.5C 83.2112,1.96995 84.2112,0.636613 85.5,-0.5 Z"/></g>
<g><path style="opacity:1" fill="#47423e" d="M 99.5,1.5 C 101.262,2.26231 102.262,3.59565 102.5,5.5C 100.738,4.73769 99.7376,3.40435 99.5,1.5 Z"/></g>
<g><path style="opacity:1" fill="#4b4441" d="M 103.5,7.5 C 105.262,8.26231 106.262,9.59565 106.5,11.5C 104.738,10.7377 103.738,9.40435 103.5,7.5 Z"/></g>
<g><path style="opacity:1" fill="#7d695f" d="M 82.5,3.5 C 82.3307,8.89683 80.9973,13.8968 78.5,18.5C 76.7839,18.6287 75.1172,18.962 73.5,19.5C 76.607,17.8365 78.9404,15.3365 80.5,12C 80.0426,11.586 79.7093,11.086 79.5,10.5C 80.3299,7.98356 81.3299,5.65023 82.5,3.5 Z"/></g>
<g><path style="opacity:1" fill="#ecd7ca" d="M 86.5,-0.5 C 89.8333,-0.5 93.1667,-0.5 96.5,-0.5C 96.8212,1.04814 97.8212,1.71481 99.5,1.5C 99.7376,3.40435 100.738,4.73769 102.5,5.5C 103.338,5.84171 103.672,6.50838 103.5,7.5C 103.738,9.40435 104.738,10.7377 106.5,11.5C 106.427,13.0269 107.094,14.0269 108.5,14.5C 108.427,16.0269 109.094,17.0269 110.5,17.5C 110.427,19.0269 111.094,20.0269 112.5,20.5C 113.292,21.9669 113.292,23.3002 112.5,24.5C 111.449,23.1152 110.116,22.1152 108.5,21.5C 106.48,23.0299 104.48,23.6965 102.5,23.5C 100.362,22.595 98.1953,21.595 96,20.5C 93.2653,22.3955 90.4319,23.0622 87.5,22.5C 88.0253,21.8076 88.6919,21.3076 89.5,21C 86.7844,21.4388 84.1177,21.6054 81.5,21.5C 81.0894,20.7376 80.9227,19.7376 81,18.5C 80.2303,19.5981 79.397,19.5981 78.5,18.5C 80.9973,13.8968 82.3307,8.89683 82.5,3.5C 83.7079,2.76589 85.0413,2.43255 86.5,2.5C 86.5,1.5 86.5,0.5 86.5,-0.5 Z"/></g>
<g><path style="opacity:1" fill="#413b39" d="M 106.5,11.5 C 107.906,11.9731 108.573,12.9731 108.5,14.5C 107.094,14.0269 106.427,13.0269 106.5,11.5 Z"/></g>
<g><path style="opacity:1" fill="#554e48" d="M 108.5,14.5 C 109.906,14.9731 110.573,15.9731 110.5,17.5C 109.094,17.0269 108.427,16.0269 108.5,14.5 Z"/></g>
<g><path style="opacity:0.375" fill="#1b1c1b" d="M 187.5,15.5 C 196.534,17.9539 205.701,17.9539 215,15.5C 222.042,15.5342 229.042,15.5342 236,15.5C 237.47,16.2666 238.97,16.9332 240.5,17.5C 240.5,17.8333 240.5,18.1667 240.5,18.5C 233.833,17.1667 227.167,17.1667 220.5,18.5C 214.773,18.2598 209.106,18.5931 203.5,19.5C 198.5,19.5 193.5,19.5 188.5,19.5C 188.567,18.0413 188.234,16.7079 187.5,15.5 Z"/></g>
<g><path style="opacity:0.959" fill="#414241" d="M 187.5,15.5 C 188.234,16.7079 188.567,18.0413 188.5,19.5C 193.5,19.5 198.5,19.5 203.5,19.5C 198.695,20.4872 193.695,20.8205 188.5,20.5C 182.546,19.1482 176.546,18.1482 170.5,17.5C 175.994,16.5651 181.661,15.8984 187.5,15.5 Z"/></g>
<g><path style="opacity:0.643" fill="#383937" d="M 240.5,18.5 C 240.5,19.8333 240.5,21.1667 240.5,22.5C 239.221,21.032 237.554,20.3653 235.5,20.5C 230.5,19.8333 225.5,19.1667 220.5,18.5C 227.167,17.1667 233.833,17.1667 240.5,18.5 Z"/></g>
<g><path style="opacity:1" fill="#756d69" d="M 110.5,17.5 C 112.389,18.604 114.055,19.9373 115.5,21.5C 114.391,21.4431 113.391,21.1098 112.5,20.5C 111.094,20.0269 110.427,19.0269 110.5,17.5 Z"/></g>
<g><path style="opacity:1" fill="#4c3d33" d="M 73.5,19.5 C 73.5,20.1667 73.1667,20.5 72.5,20.5C 64.8678,21.3577 57.2011,21.6911 49.5,21.5C 36.5,21.5 23.5,21.5 10.5,21.5C 12.2922,20.6909 14.2922,20.1909 16.5,20C 35.6422,19.7461 54.6422,19.5795 73.5,19.5 Z"/></g>
<g><path style="opacity:1" fill="#ae8b76" d="M 10.5,21.5 C 23.5,21.5 36.5,21.5 49.5,21.5C 48.791,22.404 47.791,22.7373 46.5,22.5C 33.1625,22.3334 19.8292,22.5001 6.5,23C 8.16667,23.3333 9.83333,23.6667 11.5,24C 8.30536,24.1805 5.30536,24.6805 2.5,25.5C 1.5,25.5 0.5,25.5 -0.5,25.5C -0.5,25.1667 -0.5,24.8333 -0.5,24.5C 1.19578,24.3146 2.52912,23.4813 3.5,22C 5.80982,21.5034 8.14316,21.3367 10.5,21.5 Z"/></g>
<g><path style="opacity:1" fill="#22221f" d="M 116.5,21.5 C 117.995,21.9887 119.329,22.6554 120.5,23.5C 118.517,23.8432 117.183,23.1765 116.5,21.5 Z"/></g>
<g><path style="opacity:1" fill="#d3a894" d="M 46.5,22.5 C 32.0636,24.7008 17.3969,25.7008 2.5,25.5C 5.30536,24.6805 8.30536,24.1805 11.5,24C 9.83333,23.6667 8.16667,23.3333 6.5,23C 19.8292,22.5001 33.1625,22.3334 46.5,22.5 Z"/></g>
<g><path style="opacity:1" fill="#3d3936" d="M 120.5,23.5 C 123.486,23.9028 126.152,24.9028 128.5,26.5C 125.364,26.3969 122.698,25.3969 120.5,23.5 Z"/></g>
<g><path style="opacity:1" fill="#6e6d6f" d="M 170.5,17.5 C 176.546,18.1482 182.546,19.1482 188.5,20.5C 189.263,21.2679 190.263,21.7679 191.5,22C 187.5,22.3333 183.5,22.6667 179.5,23C 181.044,23.2896 182.377,23.9563 183.5,25C 181.273,25.121 179.44,25.9544 178,27.5C 177.333,26.8333 176.667,26.1667 176,25.5C 173.137,26.6019 170.304,27.6019 167.5,28.5C 167.167,27.8333 166.833,27.1667 166.5,26.5C 160.665,28.7897 154.999,29.123 149.5,27.5C 148.259,28.0372 147.092,28.7039 146,29.5C 145.055,29.0946 144.388,28.428 144,27.5C 141.733,28.2892 139.4,28.9559 137,29.5C 135.251,29.2517 134.418,28.2517 134.5,26.5C 135.562,24.7659 135.562,23.0992 134.5,21.5C 136.113,19.7304 138.113,18.5637 140.5,18C 150.494,17.5002 160.494,17.3335 170.5,17.5 Z"/></g>
<g><path style="opacity:1" fill="#262626" d="M 134.5,21.5 C 135.562,23.0992 135.562,24.7659 134.5,26.5C 134.167,26.5 133.833,26.5 133.5,26.5C 133.216,24.5853 133.549,22.9187 134.5,21.5 Z"/></g>
<g><path style="opacity:1" fill="#e7c8ba" d="M 72.5,20.5 C 72.0825,21.2216 71.4158,21.7216 70.5,22C 65.5,22.3333 60.5,22.6667 55.5,23C 57.6237,24.5822 59.7904,24.7488 62,23.5C 63.6239,25.1581 65.2906,26.8248 67,28.5C 67.9803,27.0186 69.147,25.6853 70.5,24.5C 72.4309,28.3774 74.9309,29.0441 78,26.5C 78.9138,27.6537 79.7471,27.487 80.5,26C 84.8632,25.7095 89.1965,25.2095 93.5,24.5C 97.7194,25.9045 102.053,26.9045 106.5,27.5C 108.709,28.063 110.209,29.3964 111,31.5C 111.333,30.8333 111.667,30.1667 112,29.5C 113.925,30.8804 115.759,32.3804 117.5,34C 121.011,33.4759 124.011,34.6426 126.5,37.5C 128.042,36.2532 129.542,36.2532 131,37.5C 131.333,36.8333 131.667,36.1667 132,35.5C 132.333,36.8333 132.667,38.1667 133,39.5C 133.464,38.9056 133.631,38.2389 133.5,37.5C 133.833,37.5 134.167,37.5 134.5,37.5C 134.5,43.5 134.5,49.5 134.5,55.5C 133.691,53.7078 133.191,51.7078 133,49.5C 132.517,50.448 132.351,51.448 132.5,52.5C 131.127,52.6567 129.793,52.49 128.5,52C 129.554,50.6124 129.72,49.1124 129,47.5C 128.579,50.2651 127.079,51.4317 124.5,51C 127.276,49.2213 126.943,48.2213 123.5,48C 122.874,47.2496 122.374,46.4162 122,45.5C 120.16,46.8331 119.66,46.6665 120.5,45C 119.747,43.513 118.914,43.3463 118,44.5C 116.905,43.3066 116.072,41.9733 115.5,40.5C 115.611,39.8826 115.944,39.3826 116.5,39C 113.707,36.8395 110.707,34.8395 107.5,33C 107.833,32.6667 108.167,32.3333 108.5,32C 106.422,29.8657 104.588,30.0323 103,32.5C 102.316,31.2161 102.483,30.0495 103.5,29C 99.2672,28.9255 95.2672,28.0921 91.5,26.5C 88.7235,27.905 86.3902,29.2383 84.5,30.5C 86.5368,33.1927 87.3701,36.1927 87,39.5C 85.3333,38.1667 83.6667,38.1667 82,39.5C 81.7811,38.062 81.2811,36.7287 80.5,35.5C 79.8076,36.0253 79.3076,36.6919 79,37.5C 76.2875,34.8923 73.1208,34.0589 69.5,35C 68.7476,35.6708 68.4142,36.5041 68.5,37.5C 66.2104,39.0329 65.5437,38.6996 66.5,36.5C 65.7261,35.2888 64.8928,35.2888 64,36.5C 61.8211,31.6744 59.1544,31.0077 56,34.5C 53.2054,30.8629 49.7054,29.5295 45.5,30.5C 44.1456,28.8164 42.4789,28.3164 40.5,29C 42.7947,29.9836 42.4614,30.8169 39.5,31.5C 38.6143,32.325 38.281,33.325 38.5,34.5C 32.7551,34.7889 27.0884,34.2889 21.5,33C 23.1667,32.6667 24.8333,32.3333 26.5,32C 17.5062,31.5002 8.50617,31.3336 -0.5,31.5C -0.5,29.5 -0.5,27.5 -0.5,25.5C 0.5,25.5 1.5,25.5 2.5,25.5C 17.3969,25.7008 32.0636,24.7008 46.5,22.5C 47.791,22.7373 48.791,22.404 49.5,21.5C 57.2011,21.6911 64.8678,21.3577 72.5,20.5 Z"/></g>
<g><path style="opacity:1" fill="#656465" d="M 220.5,18.5 C 225.5,19.1667 230.5,19.8333 235.5,20.5C 229.274,20.871 223.107,20.871 217,20.5C 215.237,20.9755 213.57,21.6422 212,22.5C 209.847,20.5561 207.347,20.0561 204.5,21C 206.167,21.3333 207.833,21.6667 209.5,22C 207.939,22.3176 206.772,23.1509 206,24.5C 202.118,23.4982 197.951,22.9982 193.5,23C 192.449,24.3848 191.116,25.3848 189.5,26C 190.253,27.487 191.086,27.6537 192,26.5C 192.739,27.5742 193.739,28.2409 195,28.5C 196.416,27.4267 197.75,27.4267 199,28.5C 199.333,27.8333 199.667,27.1667 200,26.5C 202.314,27.7332 204.481,29.0666 206.5,30.5C 204.738,30.6427 203.071,30.3094 201.5,29.5C 200.719,30.7366 199.719,31.7366 198.5,32.5C 198.891,31.2815 198.224,30.4482 196.5,30C 194.236,30.6981 192.403,30.1981 191,28.5C 190.692,29.3081 190.192,29.9747 189.5,30.5C 188.289,29.7261 188.289,28.8928 189.5,28C 187.555,28.1282 185.722,27.9615 184,27.5C 181.931,28.2638 179.764,28.7638 177.5,29C 177.833,29.3333 178.167,29.6667 178.5,30C 177.234,30.3095 176.067,30.8095 175,31.5C 170.369,31.0605 165.702,30.7271 161,30.5C 159.624,30.6842 158.791,31.3509 158.5,32.5C 158.5,33.5 158.5,34.5 158.5,35.5C 156.208,35.7564 154.041,35.4231 152,34.5C 151.511,36.6044 150.345,36.9378 148.5,35.5C 144.655,36.1262 140.822,36.7929 137,37.5C 136.055,37.0946 135.388,36.428 135,35.5C 134.536,36.0944 134.369,36.7611 134.5,37.5C 134.167,37.5 133.833,37.5 133.5,37.5C 134.075,32.7616 132.408,29.0949 128.5,26.5C 130.167,26.5 131.833,26.5 133.5,26.5C 133.833,26.5 134.167,26.5 134.5,26.5C 134.418,28.2517 135.251,29.2517 137,29.5C 139.4,28.9559 141.733,28.2892 144,27.5C 144.388,28.428 145.055,29.0946 146,29.5C 147.092,28.7039 148.259,28.0372 149.5,27.5C 154.999,29.123 160.665,28.7897 166.5,26.5C 166.833,27.1667 167.167,27.8333 167.5,28.5C 170.304,27.6019 173.137,26.6019 176,25.5C 176.667,26.1667 177.333,26.8333 178,27.5C 179.44,25.9544 181.273,25.121 183.5,25C 182.377,23.9563 181.044,23.2896 179.5,23C 183.5,22.6667 187.5,22.3333 191.5,22C 190.263,21.7679 189.263,21.2679 188.5,20.5C 193.695,20.8205 198.695,20.4872 203.5,19.5C 209.106,18.5931 214.773,18.2598 220.5,18.5 Z"/></g>
<g><path style="opacity:1" fill="#ebd1c5" d="M 78.5,18.5 C 79.397,19.5981 80.2303,19.5981 81,18.5C 80.9227,19.7376 81.0894,20.7376 81.5,21.5C 84.1177,21.6054 86.7844,21.4388 89.5,21C 88.6919,21.3076 88.0253,21.8076 87.5,22.5C 90.4319,23.0622 93.2653,22.3955 96,20.5C 98.1953,21.595 100.362,22.595 102.5,23.5C 104.48,23.6965 106.48,23.0299 108.5,21.5C 110.116,22.1152 111.449,23.1152 112.5,24.5C 113.292,23.3002 113.292,21.9669 112.5,20.5C 113.391,21.1098 114.391,21.4431 115.5,21.5C 115.833,21.5 116.167,21.5 116.5,21.5C 117.183,23.1765 118.517,23.8432 120.5,23.5C 122.698,25.3969 125.364,26.3969 128.5,26.5C 132.408,29.0949 134.075,32.7616 133.5,37.5C 133.631,38.2389 133.464,38.9056 133,39.5C 132.667,38.1667 132.333,36.8333 132,35.5C 131.667,36.1667 131.333,36.8333 131,37.5C 129.542,36.2532 128.042,36.2532 126.5,37.5C 124.011,34.6426 121.011,33.4759 117.5,34C 115.759,32.3804 113.925,30.8804 112,29.5C 111.667,30.1667 111.333,30.8333 111,31.5C 110.209,29.3964 108.709,28.063 106.5,27.5C 102.053,26.9045 97.7194,25.9045 93.5,24.5C 89.1965,25.2095 84.8632,25.7095 80.5,26C 79.7471,27.487 78.9138,27.6537 78,26.5C 74.9309,29.0441 72.4309,28.3774 70.5,24.5C 69.147,25.6853 67.9803,27.0186 67,28.5C 65.2906,26.8248 63.6239,25.1581 62,23.5C 59.7904,24.7488 57.6237,24.5822 55.5,23C 60.5,22.6667 65.5,22.3333 70.5,22C 71.4158,21.7216 72.0825,21.2216 72.5,20.5C 73.1667,20.5 73.5,20.1667 73.5,19.5C 75.1172,18.962 76.7839,18.6287 78.5,18.5 Z"/></g>
<g><path style="opacity:1" fill="#5e5d5e" d="M 206.5,30.5 C 207.534,31.6871 208.867,32.5204 210.5,33C 207.258,33.2833 206.924,34.1166 209.5,35.5C 210.086,35.2907 210.586,34.9574 211,34.5C 211.236,32.236 211.736,30.0693 212.5,28C 214.594,27.5547 216.094,28.388 217,30.5C 218.395,29.1854 219.395,29.5188 220,31.5C 221,30.5 222,29.5 223,28.5C 224.573,31.2137 226.74,32.0471 229.5,31C 229.167,31.3333 228.833,31.6667 228.5,32C 229.5,32.3333 230.5,32.6667 231.5,33C 231.167,33.3333 230.833,33.6667 230.5,34C 233.666,35.5566 237,36.3899 240.5,36.5C 240.5,37.1667 240.5,37.8333 240.5,38.5C 236.111,41.4484 232.278,40.7817 229,36.5C 227.984,37.6341 227.317,37.3008 227,35.5C 226.311,36.3567 225.478,37.0233 224.5,37.5C 214.853,36.8079 205.187,36.1412 195.5,35.5C 194.446,35.6799 193.446,36.0133 192.5,36.5C 191.672,35.5853 190.672,34.9186 189.5,34.5C 181.304,35.2026 173.137,36.5359 165,38.5C 164.072,35.9648 162.238,34.9648 159.5,35.5C 159.737,34.209 159.404,33.209 158.5,32.5C 158.791,31.3509 159.624,30.6842 161,30.5C 165.702,30.7271 170.369,31.0605 175,31.5C 176.067,30.8095 177.234,30.3095 178.5,30C 178.167,29.6667 177.833,29.3333 177.5,29C 179.764,28.7638 181.931,28.2638 184,27.5C 185.722,27.9615 187.555,28.1282 189.5,28C 188.289,28.8928 188.289,29.7261 189.5,30.5C 190.192,29.9747 190.692,29.3081 191,28.5C 192.403,30.1981 194.236,30.6981 196.5,30C 198.224,30.4482 198.891,31.2815 198.5,32.5C 199.719,31.7366 200.719,30.7366 201.5,29.5C 203.071,30.3094 204.738,30.6427 206.5,30.5 Z"/></g>
<g><path style="opacity:1" fill="#e4c2b2" d="M 115.5,40.5 C 114.417,40.5394 113.417,40.8728 112.5,41.5C 111.051,40.383 109.384,39.7163 107.5,39.5C 104.044,40.7123 100.71,40.5456 97.5,39C 99.2705,38.4646 99.6039,37.6313 98.5,36.5C 97.5,35.1667 96.5,35.1667 95.5,36.5C 93.4565,33.8003 91.7899,33.967 90.5,37C 91.7653,38.6563 93.0987,40.323 94.5,42C 92.0065,43.4667 90.3399,45.6334 89.5,48.5C 87.9291,49.3094 86.2624,49.6427 84.5,49.5C 84.719,48.325 84.3857,47.325 83.5,46.5C 81.6972,50.7926 79.6972,51.1259 77.5,47.5C 75.9291,46.6906 74.2624,46.3573 72.5,46.5C 72.7035,44.6096 72.0368,43.1096 70.5,42C 70.8333,41.6667 71.1667,41.3333 71.5,41C 69.9443,40.2798 68.9443,39.1132 68.5,37.5C 68.4142,36.5041 68.7476,35.6708 69.5,35C 73.1208,34.0589 76.2875,34.8923 79,37.5C 79.3076,36.6919 79.8076,36.0253 80.5,35.5C 81.2811,36.7287 81.7811,38.062 82,39.5C 83.6667,38.1667 85.3333,38.1667 87,39.5C 87.3701,36.1927 86.5368,33.1927 84.5,30.5C 86.3902,29.2383 88.7235,27.905 91.5,26.5C 95.2672,28.0921 99.2672,28.9255 103.5,29C 102.483,30.0495 102.316,31.2161 103,32.5C 104.588,30.0323 106.422,29.8657 108.5,32C 108.167,32.3333 107.833,32.6667 107.5,33C 110.707,34.8395 113.707,36.8395 116.5,39C 115.944,39.3826 115.611,39.8826 115.5,40.5 Z"/></g>
<g><path style="opacity:0.997" fill="#6b6969" d="M 235.5,20.5 C 237.554,20.3653 239.221,21.032 240.5,22.5C 240.5,27.1667 240.5,31.8333 240.5,36.5C 237,36.3899 233.666,35.5566 230.5,34C 230.833,33.6667 231.167,33.3333 231.5,33C 230.5,32.6667 229.5,32.3333 228.5,32C 228.833,31.6667 229.167,31.3333 229.5,31C 226.74,32.0471 224.573,31.2137 223,28.5C 222,29.5 221,30.5 220,31.5C 219.395,29.5188 218.395,29.1854 217,30.5C 216.094,28.388 214.594,27.5547 212.5,28C 211.736,30.0693 211.236,32.236 211,34.5C 210.586,34.9574 210.086,35.2907 209.5,35.5C 206.924,34.1166 207.258,33.2833 210.5,33C 208.867,32.5204 207.534,31.6871 206.5,30.5C 204.481,29.0666 202.314,27.7332 200,26.5C 199.667,27.1667 199.333,27.8333 199,28.5C 197.75,27.4267 196.416,27.4267 195,28.5C 193.739,28.2409 192.739,27.5742 192,26.5C 191.086,27.6537 190.253,27.487 189.5,26C 191.116,25.3848 192.449,24.3848 193.5,23C 197.951,22.9982 202.118,23.4982 206,24.5C 206.772,23.1509 207.939,22.3176 209.5,22C 207.833,21.6667 206.167,21.3333 204.5,21C 207.347,20.0561 209.847,20.5561 212,22.5C 213.57,21.6422 215.237,20.9755 217,20.5C 223.107,20.871 229.274,20.871 235.5,20.5 Z"/></g>
<g><path style="opacity:1" fill="#44352b" d="M -0.5,32.5 C 0.833333,32.5 1.5,33.1667 1.5,34.5C 0.833333,34.5 0.166667,34.5 -0.5,34.5C -0.5,33.8333 -0.5,33.1667 -0.5,32.5 Z"/></g>
<g><path style="opacity:1" fill="#4a2f27" d="M 6.5,35.5 C 16.8333,35.5 27.1667,35.5 37.5,35.5C 40.7006,37.2603 44.3673,38.0936 48.5,38C 48.8333,38.3333 49.1667,38.6667 49.5,39C 48.552,39.4828 47.552,39.6495 46.5,39.5C 41.8783,39.096 37.3783,38.096 33,36.5C 32.6667,36.8333 32.3333,37.1667 32,37.5C 23.4015,36.8465 14.9015,36.1798 6.5,35.5 Z"/></g>
<g><path style="opacity:1" fill="#484848" d="M 240.5,44.5 C 240.5,45.5 240.5,46.5 240.5,47.5C 237.901,47.4506 235.734,46.4506 234,44.5C 233.311,45.3567 232.478,46.0233 231.5,46.5C 230.696,43.6593 228.696,43.1593 225.5,45C 226.016,47.0328 225.35,47.0328 223.5,45C 224.706,43.9823 224.373,43.4823 222.5,43.5C 220.399,43.6316 218.899,44.6316 218,46.5C 215.968,45.3569 213.968,44.3569 212,43.5C 210.902,44.3839 210.402,45.3839 210.5,46.5C 209.8,43.9851 208.467,43.3184 206.5,44.5C 205.808,43.9747 205.308,43.3081 205,42.5C 204.781,43.938 204.281,45.2713 203.5,46.5C 203.693,45.3118 203.193,43.9785 202,42.5C 199.715,44.4597 197.382,44.1263 195,41.5C 193.846,43.9574 192.512,43.9574 191,41.5C 190.692,42.3081 190.192,42.9747 189.5,43.5C 188.672,42.5853 187.672,41.9186 186.5,41.5C 185.137,42.1984 183.971,42.1984 183,41.5C 181.745,42.2106 180.579,43.044 179.5,44C 180.841,47.2617 180.508,47.7617 178.5,45.5C 177.205,46.0983 175.872,46.5983 174.5,47C 175.993,48.1562 175.826,48.9896 174,49.5C 171.787,48.2609 169.787,48.5943 168,50.5C 166.779,49.7282 165.779,48.7282 165,47.5C 163.494,50.474 161.828,50.8073 160,48.5C 159.667,49.5 159.333,50.5 159,51.5C 157.384,50.4552 155.717,49.4552 154,48.5C 153.779,51.9431 152.779,52.2764 151,49.5C 150.333,50.1667 149.667,50.8333 149,51.5C 146.26,51.2394 143.594,51.2394 141,51.5C 139.347,51.1802 138.347,50.1802 138,48.5C 137.23,49.5981 136.397,49.5981 135.5,48.5C 135.338,46.4727 135.505,44.4727 136,42.5C 136.333,42.8333 136.667,43.1667 137,43.5C 139.893,42.5715 142.727,41.5715 145.5,40.5C 146.772,40.5698 147.938,40.9032 149,41.5C 149.419,40.3279 150.085,39.3279 151,38.5C 157.213,40.2838 163.213,40.9505 169,40.5C 170.194,38.4746 171.694,38.1413 173.5,39.5C 178.664,37.7098 183.664,37.7098 188.5,39.5C 190.699,37.8506 192.532,38.1839 194,40.5C 195.268,40.3842 196.602,40.0509 198,39.5C 198.333,40.1667 198.667,40.8333 199,41.5C 202,40.8333 205,40.1667 208,39.5C 211.121,40.7109 214.288,40.7109 217.5,39.5C 220.658,39.8258 223.492,40.8258 226,42.5C 226.667,41.8333 227.333,41.1667 228,40.5C 231.752,42.0716 235.919,43.405 240.5,44.5 Z"/></g>
<g><path style="opacity:1" fill="#535252" d="M 158.5,32.5 C 159.404,33.209 159.737,34.209 159.5,35.5C 162.238,34.9648 164.072,35.9648 165,38.5C 173.137,36.5359 181.304,35.2026 189.5,34.5C 190.672,34.9186 191.672,35.5853 192.5,36.5C 193.446,36.0133 194.446,35.6799 195.5,35.5C 205.187,36.1412 214.853,36.8079 224.5,37.5C 225.478,37.0233 226.311,36.3567 227,35.5C 227.317,37.3008 227.984,37.6341 229,36.5C 232.278,40.7817 236.111,41.4484 240.5,38.5C 240.5,40.5 240.5,42.5 240.5,44.5C 235.919,43.405 231.752,42.0716 228,40.5C 227.333,41.1667 226.667,41.8333 226,42.5C 223.492,40.8258 220.658,39.8258 217.5,39.5C 214.288,40.7109 211.121,40.7109 208,39.5C 205,40.1667 202,40.8333 199,41.5C 198.667,40.8333 198.333,40.1667 198,39.5C 196.602,40.0509 195.268,40.3842 194,40.5C 192.532,38.1839 190.699,37.8506 188.5,39.5C 183.664,37.7098 178.664,37.7098 173.5,39.5C 171.694,38.1413 170.194,38.4746 169,40.5C 163.213,40.9505 157.213,40.2838 151,38.5C 150.085,39.3279 149.419,40.3279 149,41.5C 147.938,40.9032 146.772,40.5698 145.5,40.5C 142.727,41.5715 139.893,42.5715 137,43.5C 136.667,43.1667 136.333,42.8333 136,42.5C 135.505,44.4727 135.338,46.4727 135.5,48.5C 135.5,49.8333 135.5,51.1667 135.5,52.5C 135.5,55.1667 135.5,57.8333 135.5,60.5C 135.5,63.5 135.5,66.5 135.5,69.5C 135.817,73.7016 135.483,77.7016 134.5,81.5C 134.5,80.8333 134.5,80.1667 134.5,79.5C 134.5,75.8333 134.5,72.1667 134.5,68.5C 134.5,64.1667 134.5,59.8333 134.5,55.5C 134.5,49.5 134.5,43.5 134.5,37.5C 134.369,36.7611 134.536,36.0944 135,35.5C 135.388,36.428 136.055,37.0946 137,37.5C 140.822,36.7929 144.655,36.1262 148.5,35.5C 150.345,36.9378 151.511,36.6044 152,34.5C 154.041,35.4231 156.208,35.7564 158.5,35.5C 158.5,34.5 158.5,33.5 158.5,32.5 Z"/></g>
<g><path style="opacity:1" fill="#503b30" d="M 46.5,39.5 C 46.5,40.1667 46.1667,40.5 45.5,40.5C 43.1276,41.7231 40.6276,42.7231 38,43.5C 37.5045,45.4727 37.3379,47.4727 37.5,49.5C 35.2924,42.0223 38.2924,38.689 46.5,39.5 Z"/></g>
<g><path style="opacity:0.998" fill="#414141" d="M 240.5,47.5 C 240.5,47.8333 240.5,48.1667 240.5,48.5C 239.006,49.3298 237.34,50.3298 235.5,51.5C 234.328,51.0814 233.328,50.4147 232.5,49.5C 228.963,50.2489 225.296,50.2489 221.5,49.5C 220.719,50.7287 220.219,52.062 220,53.5C 218.654,50.7506 217.32,50.4172 216,52.5C 215.667,51.5 215.333,50.5 215,49.5C 213.899,51.3939 212.566,52.0606 211,51.5C 210.383,50.5509 210.549,49.7175 211.5,49C 210.5,48.3333 209.5,48.3333 208.5,49C 209.451,49.7175 209.617,50.5509 209,51.5C 207.013,50.782 205.179,49.782 203.5,48.5C 202.117,51.0756 201.283,50.7423 201,47.5C 200.517,48.448 200.351,49.448 200.5,50.5C 199.5,50.5 198.5,50.5 197.5,50.5C 197.649,49.448 197.483,48.448 197,47.5C 195.43,48.3578 193.763,49.0245 192,49.5C 191.041,48.1184 189.375,46.7851 187,45.5C 186,47.1667 185,48.8333 184,50.5C 182.984,49.3659 182.317,49.6992 182,51.5C 180.002,50.7286 178.335,51.3952 177,53.5C 176.692,52.6919 176.192,52.0253 175.5,51.5C 174.494,51.9377 174.494,52.6043 175.5,53.5C 171.959,54.2 168.459,54.8666 165,55.5C 155.831,54.3361 146.664,54.3361 137.5,55.5C 137.5,56.8333 137.5,58.1667 137.5,59.5C 136.833,57.1667 136.167,54.8333 135.5,52.5C 135.5,51.1667 135.5,49.8333 135.5,48.5C 136.397,49.5981 137.23,49.5981 138,48.5C 138.347,50.1802 139.347,51.1802 141,51.5C 143.594,51.2394 146.26,51.2394 149,51.5C 149.667,50.8333 150.333,50.1667 151,49.5C 152.779,52.2764 153.779,51.9431 154,48.5C 155.717,49.4552 157.384,50.4552 159,51.5C 159.333,50.5 159.667,49.5 160,48.5C 161.828,50.8073 163.494,50.474 165,47.5C 165.779,48.7282 166.779,49.7282 168,50.5C 169.787,48.5943 171.787,48.2609 174,49.5C 175.826,48.9896 175.993,48.1562 174.5,47C 175.872,46.5983 177.205,46.0983 178.5,45.5C 180.508,47.7617 180.841,47.2617 179.5,44C 180.579,43.044 181.745,42.2106 183,41.5C 183.971,42.1984 185.137,42.1984 186.5,41.5C 187.672,41.9186 188.672,42.5853 189.5,43.5C 190.192,42.9747 190.692,42.3081 191,41.5C 192.512,43.9574 193.846,43.9574 195,41.5C 197.382,44.1263 199.715,44.4597 202,42.5C 203.193,43.9785 203.693,45.3118 203.5,46.5C 204.281,45.2713 204.781,43.938 205,42.5C 205.308,43.3081 205.808,43.9747 206.5,44.5C 208.467,43.3184 209.8,43.9851 210.5,46.5C 210.402,45.3839 210.902,44.3839 212,43.5C 213.968,44.3569 215.968,45.3569 218,46.5C 218.899,44.6316 220.399,43.6316 222.5,43.5C 224.373,43.4823 224.706,43.9823 223.5,45C 225.35,47.0328 226.016,47.0328 225.5,45C 228.696,43.1593 230.696,43.6593 231.5,46.5C 232.478,46.0233 233.311,45.3567 234,44.5C 235.734,46.4506 237.901,47.4506 240.5,47.5 Z"/></g>
<g><path style="opacity:1" fill="#3b3b3b" d="M 240.5,48.5 C 240.5,50.8333 240.5,53.1667 240.5,55.5C 238.956,55.7031 237.622,56.3698 236.5,57.5C 234.045,56.685 231.711,55.685 229.5,54.5C 226.466,54.7228 224.133,56.0561 222.5,58.5C 222.002,57.3966 221.669,56.3966 221.5,55.5C 220.749,56.376 220.249,57.376 220,58.5C 219.311,57.6433 218.478,56.9767 217.5,56.5C 215.958,57.7468 214.458,57.7468 213,56.5C 212.333,57.1667 211.667,57.8333 211,58.5C 208.281,57.5562 205.448,57.2229 202.5,57.5C 202.5,56.5 202.5,55.5 202.5,54.5C 201.07,54.5792 199.736,54.2458 198.5,53.5C 197.808,54.0253 197.308,54.6919 197,55.5C 196,54.1667 195,54.1667 194,55.5C 193.051,52.8003 191.217,51.967 188.5,53C 191.279,53.1492 191.779,53.9826 190,55.5C 187.267,53.1093 184.6,53.1093 182,55.5C 181.667,55.1667 181.333,54.8333 181,54.5C 179.333,55.8333 177.667,57.1667 176,58.5C 173.618,57.1337 171.452,57.467 169.5,59.5C 166.192,59.3766 162.858,59.3766 159.5,59.5C 157.896,59.0609 156.396,58.3943 155,57.5C 151.023,57.7769 147.356,58.7769 144,60.5C 142.846,58.0426 141.512,58.0426 140,60.5C 139.329,59.7476 138.496,59.4142 137.5,59.5C 137.5,58.1667 137.5,56.8333 137.5,55.5C 146.664,54.3361 155.831,54.3361 165,55.5C 168.459,54.8666 171.959,54.2 175.5,53.5C 174.494,52.6043 174.494,51.9377 175.5,51.5C 176.192,52.0253 176.692,52.6919 177,53.5C 178.335,51.3952 180.002,50.7286 182,51.5C 182.317,49.6992 182.984,49.3659 184,50.5C 185,48.8333 186,47.1667 187,45.5C 189.375,46.7851 191.041,48.1184 192,49.5C 193.763,49.0245 195.43,48.3578 197,47.5C 197.483,48.448 197.649,49.448 197.5,50.5C 198.5,50.5 199.5,50.5 200.5,50.5C 200.351,49.448 200.517,48.448 201,47.5C 201.283,50.7423 202.117,51.0756 203.5,48.5C 205.179,49.782 207.013,50.782 209,51.5C 209.617,50.5509 209.451,49.7175 208.5,49C 209.5,48.3333 210.5,48.3333 211.5,49C 210.549,49.7175 210.383,50.5509 211,51.5C 212.566,52.0606 213.899,51.3939 215,49.5C 215.333,50.5 215.667,51.5 216,52.5C 217.32,50.4172 218.654,50.7506 220,53.5C 220.219,52.062 220.719,50.7287 221.5,49.5C 225.296,50.2489 228.963,50.2489 232.5,49.5C 233.328,50.4147 234.328,51.0814 235.5,51.5C 237.34,50.3298 239.006,49.3298 240.5,48.5 Z"/></g>
<g><path style="opacity:1" fill="#dbb7a4" d="M 57.5,37.5 C 58.3149,38.4293 59.1482,39.4293 60,40.5C 60.3333,40.1667 60.6667,39.8333 61,39.5C 63.9612,43.7323 65.9612,48.0656 67,52.5C 68.2949,48.9162 69.7949,48.7495 71.5,52C 74.0694,53.4258 76.2361,53.2592 78,51.5C 80,52.8333 81.6667,54.5 83,56.5C 84.5,55.6667 85.6667,54.5 86.5,53C 89.0001,52.6253 91.3334,51.7919 93.5,50.5C 94.6074,51.0219 95.7741,51.3552 97,51.5C 99.4643,49.5963 102.131,47.9296 105,46.5C 106.626,47.2887 108.126,48.2887 109.5,49.5C 110.086,49.2907 110.586,48.9574 111,48.5C 111.249,49.624 111.749,50.624 112.5,51.5C 113.328,50.5853 114.328,49.9186 115.5,49.5C 119.483,50.86 123.317,52.5267 127,54.5C 127.414,54.0426 127.914,53.7093 128.5,53.5C 129.452,55.0453 129.785,56.712 129.5,58.5C 127.616,58.7118 126.283,59.7118 125.5,61.5C 123.618,60.9067 121.785,60.2401 120,59.5C 119.692,60.3081 119.192,60.9747 118.5,61.5C 118.704,60.4706 118.204,59.4706 117,58.5C 116.439,59.0219 115.772,59.3552 115,59.5C 113.155,58.2442 111.155,57.2442 109,56.5C 107.347,56.8198 106.347,57.8198 106,59.5C 105.193,55.551 104.693,55.551 104.5,59.5C 101.01,57.6112 98.177,58.2778 96,61.5C 93.8239,57.8927 91.1572,57.5594 88,60.5C 87,59.8333 86,59.1667 85,58.5C 83.5822,60.3632 81.7489,60.8632 79.5,60C 80.7836,58.7025 80.6169,57.5358 79,56.5C 78.5172,57.448 78.3505,58.448 78.5,59.5C 69.1908,61.5182 64.0241,57.8515 63,48.5C 61.041,52.0424 58.541,52.3757 55.5,49.5C 54.3595,48.5745 54.3595,47.7412 55.5,47C 52.8333,46.3333 52.8333,45.6667 55.5,45C 54.5494,44.2825 54.3828,43.4491 55,42.5C 55.7175,43.4506 56.5509,43.6172 57.5,43C 55.1368,40.9164 55.1368,39.083 57.5,37.5 Z"/></g>
<g><path style="opacity:1" fill="#dfbcaa" d="M 68.5,37.5 C 68.9443,39.1132 69.9443,40.2798 71.5,41C 71.1667,41.3333 70.8333,41.6667 70.5,42C 72.0368,43.1096 72.7035,44.6096 72.5,46.5C 74.2624,46.3573 75.9291,46.6906 77.5,47.5C 79.6972,51.1259 81.6972,50.7926 83.5,46.5C 84.3857,47.325 84.719,48.325 84.5,49.5C 86.2624,49.6427 87.9291,49.3094 89.5,48.5C 90.3399,45.6334 92.0065,43.4667 94.5,42C 93.0987,40.323 91.7653,38.6563 90.5,37C 91.7899,33.967 93.4565,33.8003 95.5,36.5C 96.5,35.1667 97.5,35.1667 98.5,36.5C 99.6039,37.6313 99.2705,38.4646 97.5,39C 100.71,40.5456 104.044,40.7123 107.5,39.5C 109.384,39.7163 111.051,40.383 112.5,41.5C 113.417,40.8728 114.417,40.5394 115.5,40.5C 116.072,41.9733 116.905,43.3066 118,44.5C 118.914,43.3463 119.747,43.513 120.5,45C 119.66,46.6665 120.16,46.8331 122,45.5C 122.374,46.4162 122.874,47.2496 123.5,48C 126.943,48.2213 127.276,49.2213 124.5,51C 127.079,51.4317 128.579,50.2651 129,47.5C 129.72,49.1124 129.554,50.6124 128.5,52C 129.793,52.49 131.127,52.6567 132.5,52.5C 132.351,51.448 132.517,50.448 133,49.5C 133.191,51.7078 133.691,53.7078 134.5,55.5C 134.5,59.8333 134.5,64.1667 134.5,68.5C 133.679,65.3586 133.179,62.0252 133,58.5C 131.956,59.6226 131.29,60.9559 131,62.5C 130.209,61.255 129.709,59.9217 129.5,58.5C 129.785,56.712 129.452,55.0453 128.5,53.5C 127.914,53.7093 127.414,54.0426 127,54.5C 123.317,52.5267 119.483,50.86 115.5,49.5C 114.328,49.9186 113.328,50.5853 112.5,51.5C 111.749,50.624 111.249,49.624 111,48.5C 110.586,48.9574 110.086,49.2907 109.5,49.5C 108.126,48.2887 106.626,47.2887 105,46.5C 102.131,47.9296 99.4643,49.5963 97,51.5C 95.7741,51.3552 94.6074,51.0219 93.5,50.5C 91.3334,51.7919 89.0001,52.6253 86.5,53C 85.6667,54.5 84.5,55.6667 83,56.5C 81.6667,54.5 80,52.8333 78,51.5C 76.2361,53.2592 74.0694,53.4258 71.5,52C 69.7949,48.7495 68.2949,48.9162 67,52.5C 65.9612,48.0656 63.9612,43.7323 61,39.5C 60.6667,39.8333 60.3333,40.1667 60,40.5C 59.1482,39.4293 58.3149,38.4293 57.5,37.5C 52.8334,36.7245 48.5,35.0579 44.5,32.5C 42.9292,35.0934 40.5959,36.0934 37.5,35.5C 27.1667,35.5 16.8333,35.5 6.5,35.5C 4.58533,35.7845 2.91866,35.4511 1.5,34.5C 1.5,33.1667 0.833333,32.5 -0.5,32.5C -0.5,32.1667 -0.5,31.8333 -0.5,31.5C 8.50617,31.3336 17.5062,31.5002 26.5,32C 24.8333,32.3333 23.1667,32.6667 21.5,33C 27.0884,34.2889 32.7551,34.7889 38.5,34.5C 38.281,33.325 38.6143,32.325 39.5,31.5C 42.4614,30.8169 42.7947,29.9836 40.5,29C 42.4789,28.3164 44.1456,28.8164 45.5,30.5C 49.7054,29.5295 53.2054,30.8629 56,34.5C 59.1544,31.0077 61.8211,31.6744 64,36.5C 64.8928,35.2888 65.7261,35.2888 66.5,36.5C 65.5437,38.6996 66.2104,39.0329 68.5,37.5 Z"/></g>
<g><path style="opacity:1" fill="#b88b78" d="M 45.5,40.5 C 45.5,40.8333 45.5,41.1667 45.5,41.5C 43.2722,43.4312 41.6055,45.2645 40.5,47C 41.3567,47.6891 42.0233,48.5224 42.5,49.5C 42.1543,50.6956 41.6543,50.6956 41,49.5C 41.1484,50.825 40.9817,51.9916 40.5,53C 42.5756,54.1994 44.2423,55.6994 45.5,57.5C 44.1667,57.1667 42.8333,56.8333 41.5,56.5C 40.713,54.8958 39.3797,54.2291 37.5,54.5C 37.5,52.8333 37.5,51.1667 37.5,49.5C 37.3379,47.4727 37.5045,45.4727 38,43.5C 40.6276,42.7231 43.1276,41.7231 45.5,40.5 Z"/></g>
<g><path style="opacity:1" fill="#d1ab98" d="M 57.5,37.5 C 55.1368,39.083 55.1368,40.9164 57.5,43C 56.5509,43.6172 55.7175,43.4506 55,42.5C 54.3828,43.4491 54.5494,44.2825 55.5,45C 52.8333,45.6667 52.8333,46.3333 55.5,47C 54.3595,47.7412 54.3595,48.5745 55.5,49.5C 58.541,52.3757 61.041,52.0424 63,48.5C 64.0241,57.8515 69.1908,61.5182 78.5,59.5C 78.3505,58.448 78.5172,57.448 79,56.5C 80.6169,57.5358 80.7836,58.7025 79.5,60C 81.7489,60.8632 83.5822,60.3632 85,58.5C 86,59.1667 87,59.8333 88,60.5C 91.1572,57.5594 93.8239,57.8927 96,61.5C 98.177,58.2778 101.01,57.6112 104.5,59.5C 104.693,55.551 105.193,55.551 106,59.5C 106.347,57.8198 107.347,56.8198 109,56.5C 111.155,57.2442 113.155,58.2442 115,59.5C 115.772,59.3552 116.439,59.0219 117,58.5C 118.204,59.4706 118.704,60.4706 118.5,61.5C 119.192,60.9747 119.692,60.3081 120,59.5C 121.785,60.2401 123.618,60.9067 125.5,61.5C 126.283,59.7118 127.616,58.7118 129.5,58.5C 129.709,59.9217 130.209,61.255 131,62.5C 131.29,60.9559 131.956,59.6226 133,58.5C 133.179,62.0252 133.679,65.3586 134.5,68.5C 134.5,72.1667 134.5,75.8333 134.5,79.5C 133.596,78.791 133.263,77.791 133.5,76.5C 133.66,74.8008 133.494,73.1341 133,71.5C 132.667,72.5 132.333,73.5 132,74.5C 131,72.1667 130,69.8333 129,67.5C 128.047,69.5922 126.714,69.9255 125,68.5C 124.667,69.1667 124.333,69.8333 124,70.5C 123.028,68.6951 121.861,67.0284 120.5,65.5C 118.368,66.2326 116.535,66.2326 115,65.5C 114.683,63.6992 114.016,63.3659 113,64.5C 111.671,63.5061 110.338,62.5061 109,61.5C 107.726,62.5353 106.56,63.702 105.5,65C 101.241,66.1075 97.0746,66.6075 93,66.5C 92.4806,65.4844 91.6473,64.8178 90.5,64.5C 85.3737,66.1531 80.0404,67.1531 74.5,67.5C 73.0055,67.7092 71.8388,68.3759 71,69.5C 69.3333,66.8333 67.6667,66.8333 66,69.5C 65.6667,69.1667 65.3333,68.8333 65,68.5C 64.7645,70.1193 63.9311,71.1193 62.5,71.5C 63.8032,68.1497 63.1365,67.8164 60.5,70.5C 59.2054,69.9017 57.8721,69.4017 56.5,69C 57.6956,68.3457 57.6956,67.8457 56.5,67.5C 53.0494,68.96 52.3828,68.6267 54.5,66.5C 53.3493,65.269 52.1827,65.269 51,66.5C 50.1667,65.6667 49.3333,64.8333 48.5,64C 50.4719,61.1435 51.3052,57.9769 51,54.5C 50.2747,56.158 49.108,56.658 47.5,56C 48.1667,55.6667 48.8333,55.3333 49.5,55C 47.8333,54 46.1667,53 44.5,52C 45.0966,50.3718 44.7633,48.7051 43.5,47C 44.1667,45.6667 45.1667,44.6667 46.5,44C 45.7476,43.3292 45.4142,42.4959 45.5,41.5C 45.5,41.1667 45.5,40.8333 45.5,40.5C 46.1667,40.5 46.5,40.1667 46.5,39.5C 47.552,39.6495 48.552,39.4828 49.5,39C 49.1667,38.6667 48.8333,38.3333 48.5,38C 44.3673,38.0936 40.7006,37.2603 37.5,35.5C 40.5959,36.0934 42.9292,35.0934 44.5,32.5C 48.5,35.0579 52.8334,36.7245 57.5,37.5 Z"/></g>
<g><path style="opacity:1" fill="#343535" d="M 135.5,52.5 C 136.167,54.8333 136.833,57.1667 137.5,59.5C 138.496,59.4142 139.329,59.7476 140,60.5C 141.512,58.0426 142.846,58.0426 144,60.5C 147.356,58.7769 151.023,57.7769 155,57.5C 156.396,58.3943 157.896,59.0609 159.5,59.5C 162.858,59.3766 166.192,59.3766 169.5,59.5C 171.452,57.467 173.618,57.1337 176,58.5C 177.667,57.1667 179.333,55.8333 181,54.5C 181.333,54.8333 181.667,55.1667 182,55.5C 184.6,53.1093 187.267,53.1093 190,55.5C 191.779,53.9826 191.279,53.1492 188.5,53C 191.217,51.967 193.051,52.8003 194,55.5C 195,54.1667 196,54.1667 197,55.5C 197.308,54.6919 197.808,54.0253 198.5,53.5C 199.736,54.2458 201.07,54.5792 202.5,54.5C 202.5,55.5 202.5,56.5 202.5,57.5C 205.448,57.2229 208.281,57.5562 211,58.5C 211.667,57.8333 212.333,57.1667 213,56.5C 214.458,57.7468 215.958,57.7468 217.5,56.5C 218.478,56.9767 219.311,57.6433 220,58.5C 220.249,57.376 220.749,56.376 221.5,55.5C 221.669,56.3966 222.002,57.3966 222.5,58.5C 224.133,56.0561 226.466,54.7228 229.5,54.5C 231.711,55.685 234.045,56.685 236.5,57.5C 237.622,56.3698 238.956,55.7031 240.5,55.5C 240.5,56.8333 240.5,58.1667 240.5,59.5C 233.419,59.1094 225.919,59.1094 218,59.5C 217.21,61.7898 215.876,62.1231 214,60.5C 212.739,60.7591 211.739,61.4258 211,62.5C 210.676,60.4311 209.842,60.0977 208.5,61.5C 205.428,61.1298 202.761,59.9632 200.5,58C 197.259,56.7765 194.092,56.2765 191,56.5C 189.806,58.5254 188.306,58.8587 186.5,57.5C 184.441,58.567 182.608,59.9004 181,61.5C 180.692,60.6919 180.192,60.0253 179.5,59.5C 178.757,60.9079 177.923,62.2412 177,63.5C 176.667,62.5 176.333,61.5 176,60.5C 174.565,64.7687 172.899,65.102 171,61.5C 169.488,62.2567 168.154,63.2567 167,64.5C 160.411,64.6127 153.744,64.2793 147,63.5C 144.52,64.3926 142.02,65.3926 139.5,66.5C 139.331,65.6034 138.998,64.6034 138.5,63.5C 137.719,64.7287 137.219,66.062 137,67.5C 136.814,64.9644 136.314,62.631 135.5,60.5C 135.5,57.8333 135.5,55.1667 135.5,52.5 Z"/></g>
<g><path style="opacity:1" fill="#4d3a34" d="M 37.5,54.5 C 39.3797,54.2291 40.713,54.8958 41.5,56.5C 39.5168,56.8432 38.1834,56.1765 37.5,54.5 Z"/></g>
<g><path style="opacity:1" fill="#4b3c35" d="M 41.5,56.5 C 42.8333,56.8333 44.1667,57.1667 45.5,57.5C 46.9778,57.238 48.3112,57.5713 49.5,58.5C 49.3333,58.8333 49.1667,59.1667 49,59.5C 44.4605,59.8809 41.6272,62.2142 40.5,66.5C 39.4017,65.3991 39.235,64.0657 40,62.5C 42.0424,60.396 44.5424,59.2293 47.5,59C 45.0261,58.9633 43.0261,58.13 41.5,56.5 Z"/></g>
<g><path style="opacity:1" fill="#2d2e2e" d="M 240.5,59.5 C 240.5,60.8333 240.5,62.1667 240.5,63.5C 239.5,63.5 238.5,63.5 237.5,63.5C 237.5,64.5 237.5,65.5 237.5,66.5C 235.459,66.1459 233.626,66.1459 232,66.5C 231.323,64.311 230.156,63.9776 228.5,65.5C 226.633,62.7709 225.633,63.1043 225.5,66.5C 223.801,66.6602 222.134,66.4935 220.5,66C 224.166,65.6095 224.332,64.4429 221,62.5C 217.314,64.1395 213.648,65.8062 210,67.5C 205.711,65.5838 201.377,63.9171 197,62.5C 195.354,64.1408 194.354,63.8075 194,61.5C 193.517,62.448 193.351,63.448 193.5,64.5C 185.996,66.5553 178.163,67.8886 170,68.5C 167.831,67.886 165.665,67.5527 163.5,67.5C 162.184,70.028 161.017,70.028 160,67.5C 152.009,67.6107 144.176,68.2774 136.5,69.5C 136.167,69.5 135.833,69.5 135.5,69.5C 135.5,66.5 135.5,63.5 135.5,60.5C 136.314,62.631 136.814,64.9644 137,67.5C 137.219,66.062 137.719,64.7287 138.5,63.5C 138.998,64.6034 139.331,65.6034 139.5,66.5C 142.02,65.3926 144.52,64.3926 147,63.5C 153.744,64.2793 160.411,64.6127 167,64.5C 168.154,63.2567 169.488,62.2567 171,61.5C 172.899,65.102 174.565,64.7687 176,60.5C 176.333,61.5 176.667,62.5 177,63.5C 177.923,62.2412 178.757,60.9079 179.5,59.5C 180.192,60.0253 180.692,60.6919 181,61.5C 182.608,59.9004 184.441,58.567 186.5,57.5C 188.306,58.8587 189.806,58.5254 191,56.5C 194.092,56.2765 197.259,56.7765 200.5,58C 202.761,59.9632 205.428,61.1298 208.5,61.5C 209.842,60.0977 210.676,60.4311 211,62.5C 211.739,61.4258 212.739,60.7591 214,60.5C 215.876,62.1231 217.21,61.7898 218,59.5C 225.919,59.1094 233.419,59.1094 240.5,59.5 Z"/></g>
<g><path style="opacity:1" fill="#272828" d="M 240.5,63.5 C 240.5,65.1667 240.5,66.8333 240.5,68.5C 238.516,68.3832 236.85,69.0499 235.5,70.5C 234.28,69.2889 233.113,69.2889 232,70.5C 230.846,68.0426 229.512,68.0426 228,70.5C 224.25,69.999 220.583,69.999 217,70.5C 216.055,70.0946 215.388,69.428 215,68.5C 214.261,69.5742 213.261,70.2409 212,70.5C 210.584,69.4267 209.25,69.4267 208,70.5C 203.58,68.4104 199.08,67.077 194.5,66.5C 193.808,67.0253 193.308,67.6919 193,68.5C 189.779,68.9453 186.279,68.9453 182.5,68.5C 181.304,68.8457 181.304,69.3457 182.5,70C 179.943,71.1186 177.443,71.2853 175,70.5C 172.165,71.4195 169.332,72.4195 166.5,73.5C 166.167,72.8333 165.833,72.1667 165.5,71.5C 161.918,73.0451 158.251,72.7118 154.5,70.5C 148.599,71.7001 142.599,72.3668 136.5,72.5C 136.5,71.5 136.5,70.5 136.5,69.5C 144.176,68.2774 152.009,67.6107 160,67.5C 161.017,70.028 162.184,70.028 163.5,67.5C 165.665,67.5527 167.831,67.886 170,68.5C 178.163,67.8886 185.996,66.5553 193.5,64.5C 193.351,63.448 193.517,62.448 194,61.5C 194.354,63.8075 195.354,64.1408 197,62.5C 201.377,63.9171 205.711,65.5838 210,67.5C 213.648,65.8062 217.314,64.1395 221,62.5C 224.332,64.4429 224.166,65.6095 220.5,66C 222.134,66.4935 223.801,66.6602 225.5,66.5C 225.633,63.1043 226.633,62.7709 228.5,65.5C 230.156,63.9776 231.323,64.311 232,66.5C 233.626,66.1459 235.459,66.1459 237.5,66.5C 237.5,65.5 237.5,64.5 237.5,63.5C 238.5,63.5 239.5,63.5 240.5,63.5 Z"/></g>
<g><path style="opacity:1" fill="#c19c88" d="M 45.5,41.5 C 45.4142,42.4959 45.7476,43.3292 46.5,44C 45.1667,44.6667 44.1667,45.6667 43.5,47C 44.7633,48.7051 45.0966,50.3718 44.5,52C 46.1667,53 47.8333,54 49.5,55C 48.8333,55.3333 48.1667,55.6667 47.5,56C 49.108,56.658 50.2747,56.158 51,54.5C 51.3052,57.9769 50.4719,61.1435 48.5,64C 49.3333,64.8333 50.1667,65.6667 51,66.5C 52.1827,65.269 53.3493,65.269 54.5,66.5C 52.3828,68.6267 53.0494,68.96 56.5,67.5C 57.6956,67.8457 57.6956,68.3457 56.5,69C 57.8721,69.4017 59.2054,69.9017 60.5,70.5C 63.1365,67.8164 63.8032,68.1497 62.5,71.5C 61.6676,72.3285 62.001,73.1618 63.5,74C 62.1667,74 60.8333,74 59.5,74C 61.2603,74.9653 61.5937,76.132 60.5,77.5C 58.5846,76.2651 57.5846,74.9318 57.5,73.5C 56.7492,74.376 56.2492,75.376 56,76.5C 54.9125,74.0684 54.4125,74.4017 54.5,77.5C 58.4949,78.3878 61.3282,80.7212 63,84.5C 63.4169,83.244 64.2502,82.5774 65.5,82.5C 66.1408,83.4822 66.8075,84.4822 67.5,85.5C 66.1095,85.1086 65.1095,85.9419 64.5,88C 68.4832,87.7247 68.4832,88.7247 64.5,91C 59.0079,91.2461 53.6745,91.4128 48.5,91.5C 48.044,87.3983 48.7106,83.565 50.5,80C 50.4301,79.2352 50.0967,78.7352 49.5,78.5C 48.4863,77.3263 47.153,76.6596 45.5,76.5C 45.0269,75.0937 44.0269,74.427 42.5,74.5C 41.2318,72.0948 40.5651,69.4282 40.5,66.5C 41.6272,62.2142 44.4605,59.8809 49,59.5C 49.1667,59.1667 49.3333,58.8333 49.5,58.5C 48.3112,57.5713 46.9778,57.238 45.5,57.5C 44.2423,55.6994 42.5756,54.1994 40.5,53C 40.9817,51.9916 41.1484,50.825 41,49.5C 41.6543,50.6956 42.1543,50.6956 42.5,49.5C 42.0233,48.5224 41.3567,47.6891 40.5,47C 41.6055,45.2645 43.2722,43.4312 45.5,41.5 Z"/></g>
<g><path style="opacity:1" fill="#212222" d="M 240.5,68.5 C 240.5,70.5 240.5,72.5 240.5,74.5C 239.849,73.9094 239.182,73.2427 238.5,72.5C 237.046,75.7774 234.88,76.1107 232,73.5C 230.796,74.4706 230.296,75.4706 230.5,76.5C 228.453,74.9848 226.119,74.1515 223.5,74C 224.696,73.3457 224.696,72.8457 223.5,72.5C 218.217,74.5585 212.884,75.5585 207.5,75.5C 204.161,73.8331 200.827,72.1664 197.5,70.5C 195.9,72.6789 194.4,72.3455 193,69.5C 191.054,71.9944 188.721,72.6611 186,71.5C 184.513,72.2529 184.346,73.0862 185.5,74C 183.001,74.286 180.835,74.1193 179,73.5C 178.667,74.5 178.333,75.5 178,76.5C 173.09,77.1367 168.256,77.1367 163.5,76.5C 162.184,79.028 161.017,79.028 160,76.5C 157.985,77.8423 155.818,78.3423 153.5,78C 154.993,76.8438 154.826,76.0104 153,75.5C 151.14,77.9154 149.474,77.9154 148,75.5C 147.261,76.5742 146.261,77.2409 145,77.5C 142.276,76.3132 139.443,75.6465 136.5,75.5C 136.5,74.5 136.5,73.5 136.5,72.5C 142.599,72.3668 148.599,71.7001 154.5,70.5C 158.251,72.7118 161.918,73.0451 165.5,71.5C 165.833,72.1667 166.167,72.8333 166.5,73.5C 169.332,72.4195 172.165,71.4195 175,70.5C 177.443,71.2853 179.943,71.1186 182.5,70C 181.304,69.3457 181.304,68.8457 182.5,68.5C 186.279,68.9453 189.779,68.9453 193,68.5C 193.308,67.6919 193.808,67.0253 194.5,66.5C 199.08,67.077 203.58,68.4104 208,70.5C 209.25,69.4267 210.584,69.4267 212,70.5C 213.261,70.2409 214.261,69.5742 215,68.5C 215.388,69.428 216.055,70.0946 217,70.5C 220.583,69.999 224.25,69.999 228,70.5C 229.512,68.0426 230.846,68.0426 232,70.5C 233.113,69.2889 234.28,69.2889 235.5,70.5C 236.85,69.0499 238.516,68.3832 240.5,68.5 Z"/></g>
<g><path style="opacity:1" fill="#1b1c1c" d="M 240.5,74.5 C 240.5,76.8333 240.5,79.1667 240.5,81.5C 222.143,81.2338 203.81,81.5672 185.5,82.5C 181.098,82.2281 176.765,82.5614 172.5,83.5C 162.942,81.5898 153.275,80.5898 143.5,80.5C 143.5,81.5 143.5,82.5 143.5,83.5C 141.712,83.7852 140.045,83.4519 138.5,82.5C 139.855,81.3247 139.688,80.3247 138,79.5C 137.667,80.8333 137.333,82.1667 137,83.5C 136.503,80.854 136.336,78.1873 136.5,75.5C 139.443,75.6465 142.276,76.3132 145,77.5C 146.261,77.2409 147.261,76.5742 148,75.5C 149.474,77.9154 151.14,77.9154 153,75.5C 154.826,76.0104 154.993,76.8438 153.5,78C 155.818,78.3423 157.985,77.8423 160,76.5C 161.017,79.028 162.184,79.028 163.5,76.5C 168.256,77.1367 173.09,77.1367 178,76.5C 178.333,75.5 178.667,74.5 179,73.5C 180.835,74.1193 183.001,74.286 185.5,74C 184.346,73.0862 184.513,72.2529 186,71.5C 188.721,72.6611 191.054,71.9944 193,69.5C 194.4,72.3455 195.9,72.6789 197.5,70.5C 200.827,72.1664 204.161,73.8331 207.5,75.5C 212.884,75.5585 218.217,74.5585 223.5,72.5C 224.696,72.8457 224.696,73.3457 223.5,74C 226.119,74.1515 228.453,74.9848 230.5,76.5C 230.296,75.4706 230.796,74.4706 232,73.5C 234.88,76.1107 237.046,75.7774 238.5,72.5C 239.182,73.2427 239.849,73.9094 240.5,74.5 Z"/></g>
<g><path style="opacity:1" fill="#c59c88" d="M 133.5,76.5 C 132.238,79.0708 130.905,79.0708 129.5,76.5C 128.808,77.0253 128.308,77.6919 128,78.5C 126.676,76.5 125.009,74.8334 123,73.5C 122.667,73.8333 122.333,74.1667 122,74.5C 121.517,73.552 121.351,72.552 121.5,71.5C 119.549,71.7733 118.049,71.1066 117,69.5C 116.751,70.624 116.251,71.624 115.5,72.5C 114.28,71.2889 113.113,71.2889 112,72.5C 107.402,67.8928 102.735,67.5595 98,71.5C 97.3333,67.5 96.6667,67.5 96,71.5C 94.4152,70.6243 93.4152,69.2909 93,67.5C 92,70.1667 91,70.1667 90,67.5C 89.6402,70.4278 88.3068,71.0945 86,69.5C 83.7188,71.9731 81.3855,71.9731 79,69.5C 78.4054,70.8989 78.5721,72.2322 79.5,73.5C 79.1543,74.6956 78.6543,74.6956 78,73.5C 77.3333,74.8333 76.6667,76.1667 76,77.5C 75.2469,74.1732 73.7469,74.1732 71.5,77.5C 70.1575,76.0977 69.3242,76.4311 69,78.5C 68,78.5 67,78.5 66,78.5C 66.3308,80.0187 66.1641,81.352 65.5,82.5C 64.2502,82.5774 63.4169,83.244 63,84.5C 61.3282,80.7212 58.4949,78.3878 54.5,77.5C 54.4125,74.4017 54.9125,74.0684 56,76.5C 56.2492,75.376 56.7492,74.376 57.5,73.5C 57.5846,74.9318 58.5846,76.2651 60.5,77.5C 61.5937,76.132 61.2603,74.9653 59.5,74C 60.8333,74 62.1667,74 63.5,74C 62.001,73.1618 61.6676,72.3285 62.5,71.5C 63.9311,71.1193 64.7645,70.1193 65,68.5C 65.3333,68.8333 65.6667,69.1667 66,69.5C 67.6667,66.8333 69.3333,66.8333 71,69.5C 71.8388,68.3759 73.0055,67.7092 74.5,67.5C 80.0404,67.1531 85.3737,66.1531 90.5,64.5C 91.6473,64.8178 92.4806,65.4844 93,66.5C 97.0746,66.6075 101.241,66.1075 105.5,65C 106.56,63.702 107.726,62.5353 109,61.5C 110.338,62.5061 111.671,63.5061 113,64.5C 114.016,63.3659 114.683,63.6992 115,65.5C 116.535,66.2326 118.368,66.2326 120.5,65.5C 121.861,67.0284 123.028,68.6951 124,70.5C 124.333,69.8333 124.667,69.1667 125,68.5C 126.714,69.9255 128.047,69.5922 129,67.5C 130,69.8333 131,72.1667 132,74.5C 132.333,73.5 132.667,72.5 133,71.5C 133.494,73.1341 133.66,74.8008 133.5,76.5 Z"/></g>
<g><path style="opacity:1" fill="#4d3a34" d="M 42.5,74.5 C 44.0269,74.427 45.0269,75.0937 45.5,76.5C 43.9731,76.573 42.9731,75.9063 42.5,74.5 Z"/></g>
<g><path style="opacity:1" fill="#2f2621" d="M 45.5,76.5 C 47.153,76.6596 48.4863,77.3263 49.5,78.5C 47.6203,78.7709 46.287,78.1042 45.5,76.5 Z"/></g>
<g><path style="opacity:1" fill="#b88e78" d="M 133.5,76.5 C 133.263,77.791 133.596,78.791 134.5,79.5C 134.5,80.1667 134.5,80.8333 134.5,81.5C 134.5,82.1667 134.5,82.8333 134.5,83.5C 133.5,83.5 132.5,83.5 131.5,83.5C 128.445,84.4296 125.445,84.7629 122.5,84.5C 121.5,83.8333 120.5,83.1667 119.5,82.5C 117.958,83.7468 116.458,83.7468 115,82.5C 114.667,83.1667 114.333,83.8333 114,84.5C 112.025,83.2505 110.859,81.9172 110.5,80.5C 109.416,81.6651 108.583,82.9984 108,84.5C 106.343,83.4913 104.677,82.4913 103,81.5C 101.347,81.8198 100.347,82.8198 100,84.5C 99,83.1667 98,83.1667 97,84.5C 95.1724,82.1927 93.5057,82.526 92,85.5C 91.6667,84.8333 91.3333,84.1667 91,83.5C 88.6405,86.6685 85.6405,87.6685 82,86.5C 80.4369,89.0229 78.2702,90.6896 75.5,91.5C 68.9737,91.3689 63.307,92.0355 58.5,93.5C 55.1161,93.4145 51.7828,93.0811 48.5,92.5C 48.5,92.1667 48.5,91.8333 48.5,91.5C 53.6745,91.4128 59.0079,91.2461 64.5,91C 68.4832,88.7247 68.4832,87.7247 64.5,88C 65.1095,85.9419 66.1095,85.1086 67.5,85.5C 66.8075,84.4822 66.1408,83.4822 65.5,82.5C 66.1641,81.352 66.3308,80.0187 66,78.5C 67,78.5 68,78.5 69,78.5C 69.3242,76.4311 70.1575,76.0977 71.5,77.5C 73.7469,74.1732 75.2469,74.1732 76,77.5C 76.6667,76.1667 77.3333,74.8333 78,73.5C 78.6543,74.6956 79.1543,74.6956 79.5,73.5C 78.5721,72.2322 78.4054,70.8989 79,69.5C 81.3855,71.9731 83.7188,71.9731 86,69.5C 88.3068,71.0945 89.6402,70.4278 90,67.5C 91,70.1667 92,70.1667 93,67.5C 93.4152,69.2909 94.4152,70.6243 96,71.5C 96.6667,67.5 97.3333,67.5 98,71.5C 102.735,67.5595 107.402,67.8928 112,72.5C 113.113,71.2889 114.28,71.2889 115.5,72.5C 116.251,71.624 116.751,70.624 117,69.5C 118.049,71.1066 119.549,71.7733 121.5,71.5C 121.351,72.552 121.517,73.552 122,74.5C 122.333,74.1667 122.667,73.8333 123,73.5C 125.009,74.8334 126.676,76.5 128,78.5C 128.308,77.6919 128.808,77.0253 129.5,76.5C 130.905,79.0708 132.238,79.0708 133.5,76.5 Z"/></g>
<g><path style="opacity:0.945" fill="#131413" d="M 135.5,69.5 C 135.833,69.5 136.167,69.5 136.5,69.5C 136.5,70.5 136.5,71.5 136.5,72.5C 136.5,73.5 136.5,74.5 136.5,75.5C 136.336,78.1873 136.503,80.854 137,83.5C 137.333,82.1667 137.667,80.8333 138,79.5C 139.688,80.3247 139.855,81.3247 138.5,82.5C 140.045,83.4519 141.712,83.7852 143.5,83.5C 143.5,82.5 143.5,81.5 143.5,80.5C 153.275,80.5898 162.942,81.5898 172.5,83.5C 176.765,82.5614 181.098,82.2281 185.5,82.5C 185.631,83.2389 185.464,83.9056 185,84.5C 180.335,82.6842 179.501,83.6842 182.5,87.5C 183.541,85.0087 184.374,85.0087 185,87.5C 186.353,86.2958 188.019,85.6292 190,85.5C 193.659,84.76 195.826,86.0933 196.5,89.5C 195.127,89.6567 193.793,89.49 192.5,89C 193.654,88.0862 193.487,87.2529 192,86.5C 191.5,87 191,87.5 190.5,88C 190.982,89.0084 191.148,90.175 191,91.5C 192.707,90.8617 194.54,90.8617 196.5,91.5C 196.227,93.451 196.893,94.951 198.5,96C 196.567,96.2511 194.734,96.7511 193,97.5C 191.136,96.0361 188.969,95.0361 186.5,94.5C 187.5,93.8333 188.5,93.1667 189.5,92.5C 187.926,91.3691 186.259,91.2025 184.5,92C 184.58,94.2796 183.913,96.6129 182.5,99C 183.252,99.6708 183.586,100.504 183.5,101.5C 167.5,101.5 151.5,101.5 135.5,101.5C 135.141,97.6071 134.141,93.9405 132.5,90.5C 129.267,90.1216 126.101,90.7882 123,92.5C 122.617,91.944 122.117,91.6107 121.5,91.5C 125.596,89.9769 129.929,88.9769 134.5,88.5C 134.5,86.8333 134.5,85.1667 134.5,83.5C 134.5,82.8333 134.5,82.1667 134.5,81.5C 135.483,77.7016 135.817,73.7016 135.5,69.5 Z"/></g>
<g><path style="opacity:0.979" fill="#111110" d="M 240.5,81.5 C 240.5,88.1667 240.5,94.8333 240.5,101.5C 237.833,101.5 235.167,101.5 232.5,101.5C 234.076,100.717 235.409,99.5501 236.5,98C 237.738,98.0773 238.738,97.9106 239.5,97.5C 236.153,94.6887 233.32,95.022 231,98.5C 229.667,97.8333 228.333,97.1667 227,96.5C 226.055,96.9054 225.388,97.572 225,98.5C 223.881,97.4479 223.381,96.2812 223.5,95C 224.549,94.5078 225.549,94.6744 226.5,95.5C 226.998,94.3966 227.331,93.3966 227.5,92.5C 228.216,93.311 229.05,93.9777 230,94.5C 233.128,93.7963 236.294,93.2963 239.5,93C 238.692,92.6924 238.025,92.1924 237.5,91.5C 238.348,89.5914 238.682,87.5914 238.5,85.5C 237.127,85.6567 235.793,85.49 234.5,85C 235.706,83.9823 235.373,83.4823 233.5,83.5C 232.045,84.3898 230.711,84.3898 229.5,83.5C 228.833,84.1667 228.167,84.8333 227.5,85.5C 226.304,85.1543 226.304,84.6543 227.5,84C 226.216,83.3162 225.049,83.4829 224,84.5C 223.692,83.6919 223.192,83.0253 222.5,82.5C 216.19,83.1297 209.856,83.7963 203.5,84.5C 202.5,85.3333 201.5,86.1667 200.5,87C 202.126,86.8047 203.793,86.8047 205.5,87C 203.604,88.0646 203.437,88.8979 205,89.5C 206.285,89.0496 207.452,88.3829 208.5,87.5C 209.281,88.7287 209.781,90.062 210,91.5C 210.865,89.7749 211.531,88.1083 212,86.5C 212.813,88.4357 213.313,90.4357 213.5,92.5C 210.12,92.1794 209.287,93.1794 211,95.5C 213.501,92.9555 214.001,93.4555 212.5,97C 212.905,97.9454 213.572,98.6121 214.5,99C 213.748,99.6708 213.414,100.504 213.5,101.5C 203.5,101.5 193.5,101.5 183.5,101.5C 183.586,100.504 183.252,99.6708 182.5,99C 183.913,96.6129 184.58,94.2796 184.5,92C 186.259,91.2025 187.926,91.3691 189.5,92.5C 188.5,93.1667 187.5,93.8333 186.5,94.5C 188.969,95.0361 191.136,96.0361 193,97.5C 194.734,96.7511 196.567,96.2511 198.5,96C 196.893,94.951 196.227,93.451 196.5,91.5C 194.54,90.8617 192.707,90.8617 191,91.5C 191.148,90.175 190.982,89.0084 190.5,88C 191,87.5 191.5,87 192,86.5C 193.487,87.2529 193.654,88.0862 192.5,89C 193.793,89.49 195.127,89.6567 196.5,89.5C 195.826,86.0933 193.659,84.76 190,85.5C 188.019,85.6292 186.353,86.2958 185,87.5C 184.374,85.0087 183.541,85.0087 182.5,87.5C 179.501,83.6842 180.335,82.6842 185,84.5C 185.464,83.9056 185.631,83.2389 185.5,82.5C 203.81,81.5672 222.143,81.2338 240.5,81.5 Z"/></g>
<g><path style="opacity:1" fill="#52443d" d="M 49.5,78.5 C 50.0967,78.7352 50.4301,79.2352 50.5,80C 48.7106,83.565 48.044,87.3983 48.5,91.5C 47.1024,90.2233 46.4357,88.5566 46.5,86.5C 46.9638,83.5829 47.9638,80.9163 49.5,78.5 Z"/></g>
<g><path style="opacity:1" fill="#a37a64" d="M 131.5,83.5 C 131.543,87.8926 131.043,88.2259 130,84.5C 129.51,85.7932 129.343,87.1266 129.5,88.5C 113.714,86.9201 98.2139,88.2535 83,92.5C 80.7314,92.2741 78.2314,91.9408 75.5,91.5C 78.2702,90.6896 80.4369,89.0229 82,86.5C 85.6405,87.6685 88.6405,86.6685 91,83.5C 91.3333,84.1667 91.6667,84.8333 92,85.5C 93.5057,82.526 95.1724,82.1927 97,84.5C 98,83.1667 99,83.1667 100,84.5C 100.347,82.8198 101.347,81.8198 103,81.5C 104.677,82.4913 106.343,83.4913 108,84.5C 108.583,82.9984 109.416,81.6651 110.5,80.5C 110.859,81.9172 112.025,83.2505 114,84.5C 114.333,83.8333 114.667,83.1667 115,82.5C 116.458,83.7468 117.958,83.7468 119.5,82.5C 120.5,83.1667 121.5,83.8333 122.5,84.5C 125.445,84.7629 128.445,84.4296 131.5,83.5 Z"/></g>
<g><path style="opacity:1" fill="#876555" d="M 131.5,83.5 C 132.5,83.5 133.5,83.5 134.5,83.5C 134.5,85.1667 134.5,86.8333 134.5,88.5C 129.929,88.9769 125.596,89.9769 121.5,91.5C 112.932,91.1019 104.599,91.7686 96.5,93.5C 81.5049,94.0126 66.5049,94.346 51.5,94.5C 49.9731,94.573 48.9731,93.9063 48.5,92.5C 51.7828,93.0811 55.1161,93.4145 58.5,93.5C 63.307,92.0355 68.9737,91.3689 75.5,91.5C 78.2314,91.9408 80.7314,92.2741 83,92.5C 98.2139,88.2535 113.714,86.9201 129.5,88.5C 129.343,87.1266 129.51,85.7932 130,84.5C 131.043,88.2259 131.543,87.8926 131.5,83.5 Z"/></g>
<g><path style="opacity:0.94" fill="#131313" d="M 232.5,101.5 C 226.167,101.5 219.833,101.5 213.5,101.5C 213.414,100.504 213.748,99.6708 214.5,99C 213.572,98.6121 212.905,97.9454 212.5,97C 214.001,93.4555 213.501,92.9555 211,95.5C 209.287,93.1794 210.12,92.1794 213.5,92.5C 213.313,90.4357 212.813,88.4357 212,86.5C 211.531,88.1083 210.865,89.7749 210,91.5C 209.781,90.062 209.281,88.7287 208.5,87.5C 207.452,88.3829 206.285,89.0496 205,89.5C 203.437,88.8979 203.604,88.0646 205.5,87C 203.793,86.8047 202.126,86.8047 200.5,87C 201.5,86.1667 202.5,85.3333 203.5,84.5C 209.856,83.7963 216.19,83.1297 222.5,82.5C 223.192,83.0253 223.692,83.6919 224,84.5C 225.049,83.4829 226.216,83.3162 227.5,84C 226.304,84.6543 226.304,85.1543 227.5,85.5C 228.167,84.8333 228.833,84.1667 229.5,83.5C 230.711,84.3898 232.045,84.3898 233.5,83.5C 235.373,83.4823 235.706,83.9823 234.5,85C 235.793,85.49 237.127,85.6567 238.5,85.5C 238.682,87.5914 238.348,89.5914 237.5,91.5C 238.025,92.1924 238.692,92.6924 239.5,93C 236.294,93.2963 233.128,93.7963 230,94.5C 229.05,93.9777 228.216,93.311 227.5,92.5C 227.331,93.3966 226.998,94.3966 226.5,95.5C 225.549,94.6744 224.549,94.5078 223.5,95C 223.381,96.2812 223.881,97.4479 225,98.5C 225.388,97.572 226.055,96.9054 227,96.5C 228.333,97.1667 229.667,97.8333 231,98.5C 233.32,95.022 236.153,94.6887 239.5,97.5C 238.738,97.9106 237.738,98.0773 236.5,98C 235.409,99.5501 234.076,100.717 232.5,101.5 Z"/></g>
<g><path style="opacity:1" fill="#2b211e" d="M 121.5,91.5 C 113.732,92.2129 105.899,93.2129 98,94.5C 97.6174,93.944 97.1174,93.6107 96.5,93.5C 104.599,91.7686 112.932,91.1019 121.5,91.5 Z"/></g>
<g><path style="opacity:0.747" fill="#2c2220" d="M 96.5,93.5 C 94.1073,94.21 91.6073,94.8767 89,95.5C 76.6444,95.6234 64.1444,95.2901 51.5,94.5C 66.5049,94.346 81.5049,94.0126 96.5,93.5 Z"/></g>
</svg>
