<?xml version="1.0" encoding="UTF-8"?>
<svg width="43px" height="43px" viewBox="0 0 43 43" version="1.1" xmlns="http://www.w3.org/2000/svg" xmlns:xlink="http://www.w3.org/1999/xlink">
    <title>Group 3</title>
    <g id="Icons" stroke="none" stroke-width="1" fill="none" fill-rule="evenodd">
        <g id="Group-3">
            <polygon id="Background" points="0 0 43 0 43 43 0 43"></polygon>
            <path d="M43,21.5 C43,33.3741 33.3741,43 21.5,43 C9.62588,43 0,33.3741 0,21.5 C0,9.62588 9.62588,0 21.5,0 C33.3741,0 43,9.62588 43,21.5 Z" id="Ellipse-2" fill="#345B63"></path>
            <path d="M19.7832031,29.6738281 C20.6132812,29.6738281 21.1796875,29.0976562 21.1796875,28.3359375 C21.1796875,27.9160156 20.9941406,27.5742188 20.7304688,27.3203125 L18.5429688,25.1328125 L16.375,23.140625 L18.5136719,23.2578125 L29.5488281,23.2578125 C30.4277344,23.2578125 31.0136719,22.6816406 31.0136719,21.8417969 C31.0136719,20.9921875 30.4277344,20.4257812 29.5488281,20.4257812 L18.5136719,20.4257812 L16.3847656,20.5429688 L18.5429688,18.5507812 L20.7304688,16.3535156 C20.9941406,16.0996094 21.1796875,15.7675781 21.1796875,15.3378906 C21.1796875,14.5761719 20.6132812,14 19.7832031,14 C19.4414062,14 19.0898438,14.1464844 18.7871094,14.4492188 L12.4296875,20.796875 C12.1660156,21.0605469 12,21.4609375 12,21.8417969 C12,22.2226562 12.1660156,22.6230469 12.4296875,22.8867188 L18.796875,29.234375 C19.0898438,29.5273438 19.4414062,29.6738281 19.7832031,29.6738281 Z" id="􀰌" fill="#D4ECDD" fill-rule="nonzero"></path>
        </g>
    </g>
</svg>