<?xml version="1.0" encoding="UTF-8"?>
<svg width="26px" height="25px" viewBox="0 0 26 25" version="1.1" xmlns="http://www.w3.org/2000/svg" xmlns:xlink="http://www.w3.org/1999/xlink">
    <title>Group 3</title>
    <defs>
        <filter color-interpolation-filters="auto" id="filter-1">
            <feColorMatrix in="SourceGraphic" type="matrix" values="0 0 0 0 0.203922 0 0 0 0 0.356863 0 0 0 0 0.388235 0 0 0 1.000000 0"></feColorMatrix>
        </filter>
    </defs>
    <g id="Icons" stroke="none" stroke-width="1" fill="none" fill-rule="evenodd">
        <g filter="url(#filter-1)" id="Group-3">
            <g transform="translate(0.000000, 0.000000)">
                <path d="M8.59719683,10.1019703 C9.46252285,10.0710949 10.1832216,9.77127768 10.7601056,9.20251879 C11.037985,8.80032501 11.2167378,8.38675604 11.296364,7.96343693 C11.3434897,7.54011781 11.3678651,7.18342474 11.3678651,6.89417022 C11.3678651,5.64371318 11.0363599,4.38269348 10.3733496,3.11192362 C10.0629697,2.5025391 9.65427585,2.00609385 9.14645541,1.62421288 C8.62888483,1.26264473 8.03331302,1.07170425 7.35974,1.05057892 C6.46922608,1.07170425 5.7282145,1.41783465 5.13833029,2.08897014 C4.64026,2.79179362 4.40219378,3.5774934 4.42413163,4.44444444 C4.42413163,5.59171237 4.77188706,6.78529352 5.46739793,8.02518789 C5.80377818,8.60369693 6.23847248,9.0944546 6.7714808,9.4974609 C7.30367662,9.90046719 7.91224863,10.1019703 8.59719683,10.1019703 L8.59719683,10.1019703 Z M13.1789559,19.3971156 C13.1789559,18.592728 12.9067642,17.8915296 12.3631932,17.2935202 C11.7871217,16.7255738 10.8876701,16.030063 9.66321349,15.2045501 C9.45439772,15.1842373 9.20820638,15.1736746 8.92545196,15.1736746 C8.75807434,15.1533618 8.32906764,15.1736746 7.63843185,15.2354256 C6.95835872,15.3288645 6.26284786,15.4783668 5.55108674,15.6839326 C5.38370912,15.746496 5.14808044,15.8391225 4.8450132,15.9626244 C4.54113346,16.096689 4.23319114,16.2876295 3.91874873,16.5354459 C3.6156815,16.7930124 3.35892748,17.1123299 3.15011172,17.4942108 C2.90879545,17.8964046 2.78854357,18.3814747 2.78854357,18.9486086 C2.78854357,20.0625635 3.31180175,20.9798903 4.3583181,21.7022141 C5.35202113,22.4245379 6.71297989,22.7958562 8.43875686,22.816169 C9.98821857,22.7958562 11.1704245,22.465976 11.9861873,21.8265285 C12.7816372,21.1968312 13.1789559,20.3875686 13.1789559,19.3971156 L13.1789559,19.3971156 Z M11.9098111,1.14320536 C12.1161893,1.2675198 12.3477554,1.44789762 12.6061345,1.68515133 C12.8539508,1.93215519 13.0960796,2.23684745 13.3341458,2.59760309 C13.5608369,2.93804591 13.7615275,3.33942718 13.9370303,3.80418444 C14.0816575,4.26812919 14.1539712,4.80926264 14.1539712,5.42758481 C14.1344709,6.56266504 13.8752793,7.46942921 13.375584,8.15031485 C13.1310177,8.480195 12.8710136,8.78407475 12.5971968,9.06276661 C12.2933171,9.34145846 11.9707495,9.62502539 11.6278692,9.9134674 C11.4320536,10.109283 11.2508633,10.3310989 11.0842982,10.5789153 C10.8884826,10.8364818 10.7909811,11.1354865 10.7909811,11.4759293 C10.7909811,11.8058095 10.8909202,12.0788137 11.0924233,12.2957546 C11.2622385,12.5021328 11.4288036,12.6825107 11.5896811,12.8368881 L12.7044485,13.7184644 C13.3967093,14.2652854 14.0044688,14.8681698 14.5269145,15.5279301 C15.0192972,16.1982531 15.2752387,17.0749543 15.2955515,18.1580337 C15.2955515,19.6936827 14.5919155,21.055454 13.1862685,22.24091 C11.7278082,23.4678042 9.62340037,24.1023766 6.8738574,24.1438147 C4.57200894,24.1226894 2.85354459,23.649807 1.71846435,22.7235426 C0.57282145,21.8582165 1.15464999e-14,20.8238879 1.15464999e-14,19.6197441 C1.15464999e-14,19.0331099 0.186065407,18.3798497 0.559008735,17.6591509 C0.920576884,16.9384522 1.57546212,16.3055048 2.52285192,15.7603088 C3.58724355,15.1736746 4.70526102,14.782856 5.87690433,14.5870404 C7.03717246,14.4221003 8,14.3302864 8.76701198,14.3091611 C8.52975828,14.0085314 8.31850498,13.6867764 8.13325208,13.3447085 C7.91712371,13.0132033 7.80905952,12.6142596 7.80905952,12.1470648 C7.80905952,11.8675604 7.85049766,11.6343693 7.93256145,11.4474914 C8.00487508,11.2508633 8.07150112,11.0688605 8.13325208,10.9039204 C7.76030875,10.944546 7.40849076,10.9656713 7.07779809,10.9656713 C5.32845826,10.944546 3.99512492,10.4139752 3.07779809,9.37233394 C2.11740808,8.4030063 1.63802559,7.27442616 1.63802559,5.98578103 C1.63802559,4.4290067 2.31809872,3.01604713 3.67824497,1.74771481 C4.61263457,1.00589072 5.58277473,0.520820638 6.59029047,0.294129596 C7.58724355,0.0983140362 8.52163315,0 9.39345927,0 L15.9658745,0 L13.9362178,1.14320536 L11.9098111,1.14320536 Z" id="Fill-5" fill="#444444"></path>
                <polygon id="Fill-7" fill="#444444" points="26 11.2594759 22.7499492 11.2594759 22.7499492 8.00942515 21.1249238 8.00942515 21.1249238 11.2594759 17.874873 11.2594759 17.874873 12.8845013 21.1249238 12.8845013 21.1249238 16.1345521 22.7499492 16.1345521 22.7499492 12.8845013 26 12.8845013"></polygon>
            </g>
        </g>
    </g>
</svg>