<?xml version="1.0" encoding="UTF-8"?>
<svg width="26px" height="22px" viewBox="0 0 26 22" version="1.1" xmlns="http://www.w3.org/2000/svg" xmlns:xlink="http://www.w3.org/1999/xlink">
    <title>Fill 1</title>
    <g id="Icons" stroke="none" stroke-width="1" fill="none" fill-rule="evenodd">
        <path d="M26,2.500875 C25.0436875,2.925 24.0150625,3.2118125 22.9360625,3.341 C24.0378125,2.6804375 24.883625,1.6355625 25.28175,0.39 C24.2515,1.001 23.109125,1.444625 21.8944375,1.6843125 C20.9210625,0.6475625 19.5349375,1.42108547e-14 18.0009375,1.42108547e-14 C15.0548125,1.42108547e-14 12.666875,2.3879375 12.666875,5.3340625 C12.666875,5.7516875 12.714,6.15875 12.805,6.5495625 C8.3711875,6.3269375 4.441125,4.2030625 1.81025,0.9758125 C1.3511875,1.7639375 1.0879375,2.6804375 1.0879375,3.657875 C1.0879375,5.5079375 2.029625,7.1410625 3.4604375,8.097375 C2.5861875,8.06975 1.7639375,7.8300625 1.044875,7.4303125 C1.0440625,7.4530625 1.0440625,7.475 1.0440625,7.49775 C1.0440625,10.0823125 2.88275,12.237875 5.3235,12.7278125 C4.8758125,12.8496875 4.4045625,12.9146875 3.917875,12.9146875 C3.5741875,12.9146875 3.24025,12.881375 2.9144375,12.819625 C3.592875,14.938625 5.5631875,16.48075 7.8975,16.5238125 C6.0718125,17.954625 3.771625,18.8069375 1.272375,18.8069375 C0.84175,18.8069375 0.417625,18.78175 0,18.733 C2.3603125,20.245875 5.16425,21.1290625 8.177,21.1290625 C17.98875,21.1290625 23.3536875,13.0008125 23.3536875,5.952375 C23.3536875,5.7208125 23.3488125,5.490875 23.33825,5.26175 C24.3806875,4.5101875 25.285,3.5709375 26,2.500875" id="Fill-1" fill="#345B63"></path>
    </g>
</svg>